REM DIRINDEX 1\2\6,1\2\7,1\2\8,1\3\9,1\3\10,1\3\11,1\4\12,1\4\13,1\4\14,1\5\15,1\5\16,1\5\17,1\5\18
REM DIRNAME folder01,folder02,folder03,folder04,folder05,folder06,folder07,folder08,folder09,folder10,folder11,folder12,folder13,folder14,folder15,folder16,folder17,folder18
TITLE ""
FILE "2Q_t_0194-0211.mp3" MP3
  TRACK 01 AUDIO
    TITLE "13:cjc019_2444"
    INDEX 01 00:00:00
  TRACK 02 AUDIO
    TITLE "0:"
    INDEX 01 00:01:17
  TRACK 03 AUDIO
    TITLE "14:cjc019_2445"
    INDEX 01 00:01:71
  TRACK 04 AUDIO
    TITLE "0:"
    INDEX 01 00:06:14
  TRACK 05 AUDIO
    TITLE "13:cjc019_2446"
    INDEX 01 00:06:71
  TRACK 06 AUDIO
    TITLE "0:"
    INDEX 01 00:08:23
  TRACK 07 AUDIO
    TITLE "14:cjc019_2447"
    INDEX 01 00:09:02
  TRACK 08 AUDIO
    TITLE "0:"
    INDEX 01 00:11:17
  TRACK 09 AUDIO
    TITLE "13:cjc019_2448"
    INDEX 01 00:11:66
  TRACK 10 AUDIO
    TITLE "0:"
    INDEX 01 00:13:00
  TRACK 11 AUDIO
    TITLE "14:cjc019_2449"
    INDEX 01 00:13:57
  TRACK 12 AUDIO
    TITLE "0:"
    INDEX 01 00:17:06
  TRACK 13 AUDIO
    TITLE "13:cjc019_2450"
    INDEX 01 00:17:57
  TRACK 14 AUDIO
    TITLE "0:"
    INDEX 01 00:18:62
  TRACK 15 AUDIO
    TITLE "14:cjc019_2451"
    INDEX 01 00:19:44
  TRACK 16 AUDIO
    TITLE "0:"
    INDEX 01 00:22:74
  TRACK 17 AUDIO
    TITLE "13:cjc019_2452"
    INDEX 01 00:23:53
  TRACK 18 AUDIO
    TITLE "0:"
    INDEX 01 00:25:15
  TRACK 19 AUDIO
    TITLE "14:cjc019_2453"
    INDEX 01 00:26:01
  TRACK 20 AUDIO
    TITLE "0:"
    INDEX 01 00:29:48
  TRACK 21 AUDIO
    TITLE "13:cjc019_2454"
    INDEX 01 00:30:28
  TRACK 22 AUDIO
    TITLE "0:"
    INDEX 01 00:31:47
  TRACK 23 AUDIO
    TITLE "14:cjc019_2455"
    INDEX 01 00:32:37
  TRACK 24 AUDIO
    TITLE "0:"
    INDEX 01 00:35:66
  TRACK 25 AUDIO
    TITLE "13:cjc019_2456"
    INDEX 01 00:36:40
  TRACK 26 AUDIO
    TITLE "0:"
    INDEX 01 00:37:56
  TRACK 27 AUDIO
    TITLE "14:cjc019_2457"
    INDEX 01 00:38:35
  TRACK 28 AUDIO
    TITLE "0:"
    INDEX 01 00:39:45
  TRACK 29 AUDIO
    TITLE "13:cjc019_2458"
    INDEX 01 00:40:24
  TRACK 30 AUDIO
    TITLE "0:"
    INDEX 01 00:41:45
  TRACK 31 AUDIO
    TITLE "14:cjc019_2459"
    INDEX 01 00:42:31
  TRACK 32 AUDIO
    TITLE "0:"
    INDEX 01 00:44:48
  TRACK 33 AUDIO
    TITLE "13:cjc019_2460"
    INDEX 01 00:45:33
  TRACK 34 AUDIO
    TITLE "0:"
    INDEX 01 00:46:53
  TRACK 35 AUDIO
    TITLE "14:cjc019_2461"
    INDEX 01 00:47:42
  TRACK 36 AUDIO
    TITLE "0:"
    INDEX 01 00:50:03
  TRACK 37 AUDIO
    TITLE "13:cjc019_2462"
    INDEX 01 00:50:60
  TRACK 38 AUDIO
    TITLE "0:"
    INDEX 01 00:52:08
  TRACK 39 AUDIO
    TITLE "14:cjc019_2463"
    INDEX 01 00:52:65
  TRACK 40 AUDIO
    TITLE "0:"
    INDEX 01 00:54:11
  TRACK 41 AUDIO
    TITLE "13:cjc019_2464"
    INDEX 01 00:54:62
  TRACK 42 AUDIO
    TITLE "0:"
    INDEX 01 00:56:12
  TRACK 43 AUDIO
    TITLE "14:cjc019_2465"
    INDEX 01 00:56:69
  TRACK 44 AUDIO
    TITLE "0:"
    INDEX 01 00:59:26
  TRACK 45 AUDIO
    TITLE "13:cjc019_2466"
    INDEX 01 01:00:04
  TRACK 46 AUDIO
    TITLE "0:"
    INDEX 01 01:01:48
  TRACK 47 AUDIO
    TITLE "14:cjc019_2467"
    INDEX 01 01:02:34
  TRACK 48 AUDIO
    TITLE "0:"
    INDEX 01 01:03:45
  TRACK 49 AUDIO
    TITLE "13:cjc019_2468"
    INDEX 01 01:04:19
  TRACK 50 AUDIO
    TITLE "0:"
    INDEX 01 01:05:56
  TRACK 51 AUDIO
    TITLE "14:cjc019_2469"
    INDEX 01 01:06:36
  TRACK 52 AUDIO
    TITLE "0:"
    INDEX 01 01:09:26
  TRACK 53 AUDIO
    TITLE "13:cjc019_2470"
    INDEX 01 01:10:06
  TRACK 54 AUDIO
    TITLE "0:"
    INDEX 01 01:11:23
  TRACK 55 AUDIO
    TITLE "14:cjc019_2471"
    INDEX 01 01:12:07
  TRACK 56 AUDIO
    TITLE "0:"
    INDEX 01 01:16:24
  TRACK 57 AUDIO
    TITLE "13:cjc019_2472"
    INDEX 01 01:16:69
  TRACK 58 AUDIO
    TITLE "0:"
    INDEX 01 01:18:17
  TRACK 59 AUDIO
    TITLE "14:cjc019_2473"
    INDEX 01 01:18:70
  TRACK 60 AUDIO
    TITLE "0:"
    INDEX 01 01:21:23
  TRACK 61 AUDIO
    TITLE "13:cjc019_2474"
    INDEX 01 01:22:01
  TRACK 62 AUDIO
    TITLE "0:"
    INDEX 01 01:23:32
  TRACK 63 AUDIO
    TITLE "14:cjc019_2475"
    INDEX 01 01:24:16
  TRACK 64 AUDIO
    TITLE "0:"
    INDEX 01 01:25:23
  TRACK 65 AUDIO
    TITLE "13:cjc019_2476"
    INDEX 01 01:26:07
  TRACK 66 AUDIO
    TITLE "0:"
    INDEX 01 01:27:20
  TRACK 67 AUDIO
    TITLE "14:cjc019_2477"
    INDEX 01 01:27:69
  TRACK 68 AUDIO
    TITLE "0:"
    INDEX 01 01:29:11
  TRACK 69 AUDIO
    TITLE "13:cjc019_2478"
    INDEX 01 01:29:66
  TRACK 70 AUDIO
    TITLE "0:"
    INDEX 01 01:31:02
  TRACK 71 AUDIO
    TITLE "14:cjc019_2479"
    INDEX 01 01:31:53
  TRACK 72 AUDIO
    TITLE "0:"
    INDEX 01 01:33:62
